<?xml version="1.0" encoding="UTF-8" standalone="no"?>
<!-- Generator: Adobe Illustrator 14.0.0, SVG Export Plug-In . SVG Version: 6.00 Build 43363)  -->

<svg
   version="1.1"
   id="Layer_1"
   x="0px"
   y="0px"
   width="612px"
   height="792px"
   viewBox="0 0 612 792"
   enable-background="new 0 0 612 792"
   xml:space="preserve"
   sodipodi:docname="academic-press.svg"
   inkscape:version="1.4.2 (f4327f4, 2025-05-13)"
   xmlns:inkscape="http://www.inkscape.org/namespaces/inkscape"
   xmlns:sodipodi="http://sodipodi.sourceforge.net/DTD/sodipodi-0.dtd"
   xmlns="http://www.w3.org/2000/svg"
   xmlns:svg="http://www.w3.org/2000/svg"><defs
   id="defs2">
	
	
	
</defs><sodipodi:namedview
   id="namedview2"
   pagecolor="#ffffff"
   bordercolor="#000000"
   borderopacity="0.25"
   inkscape:showpageshadow="2"
   inkscape:pageopacity="0.0"
   inkscape:pagecheckerboard="0"
   inkscape:deskcolor="#d1d1d1"
   inkscape:zoom="4.5833333"
   inkscape:cx="310.03636"
   inkscape:cy="423.38182"
   inkscape:window-width="3840"
   inkscape:window-height="2054"
   inkscape:window-x="-11"
   inkscape:window-y="-11"
   inkscape:window-maximized="1"
   inkscape:current-layer="Layer_1" />
<path
   d="m 233.277,410.35 c 4.148,0 7.902,-1.682 10.618,-4.396 2.716,-2.717 4.396,-6.471 4.396,-10.619 0,-4.148 -1.68,-7.902 -4.396,-10.618 -2.716,-2.717 -6.47,-4.396 -10.618,-4.396 -4.148,0 -7.902,1.68 -10.618,4.396 -2.716,2.716 -4.396,6.47 -4.396,10.618 0,4.148 1.68,7.902 4.396,10.619 2.716,2.714 6.47,4.396 10.618,4.396 z m 11.154,-3.862 c -2.854,2.854 -6.797,4.619 -11.154,4.619 -4.357,0 -8.3,-1.766 -11.154,-4.619 -2.854,-2.854 -4.619,-6.797 -4.619,-11.154 0,-4.356 1.765,-8.3 4.619,-11.154 2.854,-2.854 6.798,-4.619 11.154,-4.619 4.356,0 8.3,1.765 11.154,4.619 2.854,2.854 4.619,6.797 4.619,11.154 -0.001,4.357 -1.765,8.301 -4.619,11.154 z"
   id="path1" /><path
   fill-rule="evenodd"
   clip-rule="evenodd"
   d="m 238.72,396.525 h -1.276 v 4.848 c 0,1.189 1.021,1.359 1.531,1.359 v 0.342 h -4.083 v -0.086 h -4.337 v -0.256 c 0.51,0 1.531,-0.17 1.531,-1.359 v -4.764 h -1.871 v -1.02 h 1.871 v -3.913 l -3.146,3.913 h 1.276 v 1.02 0 h -2.042 v 0 l -5.188,6.379 h -1.956 v 0.086 -0.342 c 0.51,0 1.276,0 2.296,-1.275 l 10.546,-13.182 v 13.098 c 0,0.766 0.425,1.189 0.936,1.275 v 0 c 0.51,-0.086 0.851,-0.51 0.851,-1.275 v -15.395 h -4.167 c -0.34,-0.595 -0.425,-1.021 -0.425,-1.105 0.766,0.34 1.105,0.425 2.637,0.425 h 4.252 v 0.68 h -0.51 v 9.866 h 1.276 c 2.466,0.17 5.273,-1.956 5.188,-5.103 -0.085,-1.957 -0.766,-4.763 -5.103,-4.763 h -0.851 v -0.68 h 0.936 c 5.103,0 7.144,3.742 7.059,5.613 -0.342,4.338 -4.34,5.614 -7.231,5.614 z"
   id="path2" />
</svg>
